<?xml version="1.0" encoding="UTF-8" standalone="no"?>
<!-- Created with Inkscape (http://www.inkscape.org/) -->

<svg
   xmlns:dc="http://purl.org/dc/elements/1.1/"
   xmlns:cc="http://creativecommons.org/ns#"
   xmlns:rdf="http://www.w3.org/1999/02/22-rdf-syntax-ns#"
   xmlns:svg="http://www.w3.org/2000/svg"
   xmlns="http://www.w3.org/2000/svg"
   xmlns:sodipodi="http://sodipodi.sourceforge.net/DTD/sodipodi-0.dtd"
   xmlns:inkscape="http://www.inkscape.org/namespaces/inkscape"
   width="210mm"
   height="297mm"
   viewBox="0 0 210 297"
   version="1.1"
   id="svg8"
   inkscape:version="0.92.3 (2405546, 2018-03-11)"
   sodipodi:docname="helper.svg"
   inkscape:export-filename="D:\Documents\Workspace\cheeses-of-the-world\public\img\map\cheese_icon.png"
   inkscape:export-xdpi="55.5"
   inkscape:export-ydpi="55.5">
  <defs
     id="defs2" />
  <sodipodi:namedview
     id="base"
     pagecolor="#ffffff"
     bordercolor="#666666"
     borderopacity="1.0"
     inkscape:pageopacity="0.0"
     inkscape:pageshadow="2"
     inkscape:zoom="1.4"
     inkscape:cx="476.61827"
     inkscape:cy="489.39087"
     inkscape:document-units="mm"
     inkscape:current-layer="layer1"
     showgrid="false"
     inkscape:window-width="1920"
     inkscape:window-height="1017"
     inkscape:window-x="-8"
     inkscape:window-y="-8"
     inkscape:window-maximized="1"
     inkscape:snap-bbox="false"
     inkscape:bbox-paths="false"
     inkscape:bbox-nodes="false"
     inkscape:snap-bbox-edge-midpoints="false"
     inkscape:snap-bbox-midpoints="false"
     inkscape:object-paths="true"
     inkscape:snap-intersection-paths="true"
     inkscape:snap-smooth-nodes="false"
     inkscape:object-nodes="false" />
  <metadata
     id="metadata5">
    <rdf:RDF>
      <cc:Work
         rdf:about="">
        <dc:format>image/svg+xml</dc:format>
        <dc:type
           rdf:resource="http://purl.org/dc/dcmitype/StillImage" />
        <dc:title></dc:title>
      </cc:Work>
    </rdf:RDF>
  </metadata>
  <g
     inkscape:label="Layer 1"
     inkscape:groupmode="layer"
     id="layer1">
    <rect
       style="fill:#f2f2f2;fill-opacity:1;stroke:#000000;stroke-width:0.40000001;stroke-miterlimit:4;stroke-dasharray:none;stroke-opacity:1"
       id="rect877"
       width="184.83035"
       height="44.79018"
       x="10.016369"
       y="127.47768" />
    <circle
       style="fill:#333333;fill-opacity:1;stroke:none;stroke-width:0.08159025;stroke-miterlimit:4;stroke-dasharray:none;stroke-opacity:1"
       id="path847"
       cx="32.731152"
       cy="150.29155"
       r="13.656376" />
    <path
       style="fill:none;stroke:#000000;stroke-width:0.26458332px;stroke-linecap:butt;stroke-linejoin:miter;stroke-opacity:1"
       d="M 102.49786,77.97262 Z"
       id="path839"
       inkscape:connector-curvature="0" />
    <g
       id="g851"
       transform="matrix(0.20397563,0,0,0.20397563,10.97913,129.1205)">
      <path
         inkscape:connector-curvature="0"
         id="path837"
         d="m 119.95395,66.669609 c -8.64979,-0.01018 -33.609431,1.347102 -53.804987,16.113743 l 6.713802,1.267622 c 0,0 4.169976,-2.430291 7.799006,-1.789554 5.25662,0.928102 4.175456,4.045233 4.175456,4.04523 L 146.99829,98.151405 132.63638,79.296226 c 0,0 -6.32463,1.106194 -8.51783,-3.343981 -1.58917,-3.224557 1.9575,-5.268413 1.9575,-5.268413 l -2.99826,-3.936711 c 0,0 -1.12774,-0.07517 -3.12384,-0.07751 z m -15.05077,7.426417 a 6.9500776,2.6737654 0 0 1 6.94997,2.673739 6.9500776,2.6737654 0 0 1 -6.94997,2.673739 6.9500776,2.6737654 0 0 1 -6.949957,-2.673739 6.9500776,2.6737654 0 0 1 6.949957,-2.673739 z m 17.63976,10.825697 a 6.6817379,2.4054255 0 0 1 6.68176,2.405539 6.6817379,2.4054255 0 0 1 -6.68176,2.40502 6.6817379,2.4054255 0 0 1 -6.68177,-2.40502 6.6817379,2.4054255 0 0 1 6.68177,-2.405539 z"
         style="fill:#d4aa00;fill-opacity:1;stroke:none;stroke-width:0.26458332px;stroke-linecap:butt;stroke-linejoin:miter;stroke-opacity:1" />
      <path
         inkscape:connector-curvature="0"
         id="path841"
         d="m 66.148963,82.783352 1.067633,43.008748 47.353694,8.96069 c 0,0 1.68841,-3.94922 6.22443,-3.10007 4.54157,0.85019 4.6607,5.15989 4.6607,5.15989 l 21.6762,4.10208 L 146.99829,98.151405 84.837227,86.30665 c 0,0 -1.783982,4.939234 -6.879682,3.872632 -4.961181,-1.038442 -5.09478,-6.128308 -5.09478,-6.128308 z m 41.356127,18.399908 a 5.4684929,5.4684929 0 0 1 5.4684,5.4684 5.4684929,5.4684929 0 0 1 -5.4684,5.4684 5.4684929,5.4684929 0 0 1 -5.4684,-5.4684 5.4684929,5.4684929 0 0 1 5.4684,-5.4684 z m -26.019597,2.94607 a 7.0870537,6.7563248 0 0 1 7.086907,6.75618 7.0870537,6.7563248 0 0 1 -7.086907,6.7567 7.0870537,6.7563248 0 0 1 -7.086904,-6.7567 7.0870537,6.7563248 0 0 1 7.086904,-6.75618 z m 47.418807,16.18196 a 2.5985863,2.5985863 0 0 1 2.59881,2.59829 2.5985863,2.5985863 0 0 1 -2.59881,2.59881 2.5985863,2.5985863 0 0 1 -2.5988,-2.59881 2.5985863,2.5985863 0 0 1 2.5988,-2.59829 z m -26.44127,0.67283 a 4.0259799,3.8381011 0 0 1 4.02611,3.83853 4.0259799,3.8381011 0 0 1 -4.02611,3.838 4.0259799,3.8381011 0 0 1 -4.026117,-3.838 4.0259799,3.8381011 0 0 1 4.026117,-3.83853 z"
         style="fill:#ffcc00;fill-opacity:1;stroke:none;stroke-width:0.26499999;stroke-linecap:butt;stroke-linejoin:miter;stroke-miterlimit:4;stroke-dasharray:none;stroke-opacity:1" />
    </g>
    <text
       xml:space="preserve"
       style="font-style:normal;font-weight:normal;font-size:10.58333302px;line-height:1.25;font-family:sans-serif;letter-spacing:0px;word-spacing:0px;fill:#000000;fill-opacity:1;stroke:none;stroke-width:0.26458332"
       x="54.239582"
       y="140.13988"
       id="text855"><tspan
         sodipodi:role="line"
         id="tspan853"
         x="54.239582"
         y="140.13988"
         style="font-style:normal;font-variant:normal;font-weight:normal;font-stretch:normal;font-family:'Charis SIL';-inkscape-font-specification:'Charis SIL';stroke-width:0.26458332">This map is interactive!</tspan></text>
    <text
       xml:space="preserve"
       style="font-style:normal;font-weight:normal;font-size:6.37819433px;line-height:1.25;font-family:sans-serif;letter-spacing:0px;word-spacing:0px;fill:#000000;fill-opacity:1;stroke:none;stroke-width:0.15945485"
       x="55.094177"
       y="150.19054"
       id="text859"><tspan
         sodipodi:role="line"
         x="55.094177"
         y="150.19054"
         style="font-style:normal;font-variant:normal;font-weight:normal;font-stretch:normal;font-family:Georgia;-inkscape-font-specification:Georgia;stroke-width:0.15945485"
         id="tspan861">You can click on various regions to see</tspan><tspan
         sodipodi:role="line"
         x="55.094177"
         y="158.27461"
         style="font-style:normal;font-variant:normal;font-weight:normal;font-stretch:normal;font-family:Georgia;-inkscape-font-specification:Georgia;stroke-width:0.15945485"
         id="tspan863">them close up. If you see an icon like this</tspan><tspan
         sodipodi:role="line"
         x="55.094177"
         y="166.35867"
         style="font-style:normal;font-variant:normal;font-weight:normal;font-stretch:normal;font-family:Georgia;-inkscape-font-specification:Georgia;stroke-width:0.15945485"
         id="tspan865">(left), click on it to see more about that cheese!</tspan></text>
  </g>
</svg>
