<?xml version="1.0" encoding="UTF-8" standalone="no"?>
<!-- Created with Inkscape (http://www.inkscape.org/) -->

<svg
   xmlns:dc="http://purl.org/dc/elements/1.1/"
   xmlns:cc="http://creativecommons.org/ns#"
   xmlns:rdf="http://www.w3.org/1999/02/22-rdf-syntax-ns#"
   xmlns:svg="http://www.w3.org/2000/svg"
   xmlns="http://www.w3.org/2000/svg"
   xmlns:sodipodi="http://sodipodi.sourceforge.net/DTD/sodipodi-0.dtd"
   xmlns:inkscape="http://www.inkscape.org/namespaces/inkscape"
   width="25mm"
   height="11mm"
   viewBox="0 0 25 11"
   version="1.1"
   id="svg1416"
   sodipodi:docname="NBC.svg"
   inkscape:version="0.92.3 (2405546, 2018-03-11)">
  <defs
     id="defs1410" />
  <sodipodi:namedview
     id="base"
     pagecolor="#ffffff"
     bordercolor="#666666"
     borderopacity="1.0"
     inkscape:pageopacity="0.0"
     inkscape:pageshadow="2"
     inkscape:zoom="5.6"
     inkscape:cx="24.452354"
     inkscape:cy="39.519466"
     inkscape:document-units="mm"
     inkscape:current-layer="layer1-5"
     showgrid="false"
     inkscape:window-width="1920"
     inkscape:window-height="1017"
     inkscape:window-x="-8"
     inkscape:window-y="-8"
     inkscape:window-maximized="1" />
  <metadata
     id="metadata1413">
    <rdf:RDF>
      <cc:Work
         rdf:about="">
        <dc:format>image/svg+xml</dc:format>
        <dc:type
           rdf:resource="http://purl.org/dc/dcmitype/StillImage" />
        <dc:title></dc:title>
      </cc:Work>
    </rdf:RDF>
  </metadata>
  <g
     inkscape:label="Layer 1"
     inkscape:groupmode="layer"
     id="layer1"
     transform="translate(0,-286)">
    <g
       id="layer1-5"
       inkscape:label="Layer 1"
       transform="translate(-1.0529727,-14.448812)">
      <text
         id="text1392"
         y="303.66855"
         x="14.400035"
         style="font-style:normal;font-weight:normal;font-size:10.58333302px;line-height:1.25;font-family:sans-serif;letter-spacing:0px;word-spacing:0px;fill:#000000;fill-opacity:1;stroke:none;stroke-width:0.26458332"
         xml:space="preserve"
         inkscape:export-filename="D:\Documents\Workspace\cheeses-of-the-world\public\img\NBC.png"
         inkscape:export-xdpi="515.29999"
         inkscape:export-ydpi="515.29999"><tspan
           style="font-style:normal;font-variant:normal;font-weight:bold;font-stretch:normal;font-size:3.52777767px;font-family:'Charis SIL';-inkscape-font-specification:'Charis SIL Bold';stroke-width:0.26458332"
           y="303.66855"
           x="14.400035"
           sodipodi:role="line"
           id="tspan2015"><tspan
             style="fill:#003380"
             id="tspan2301">N</tspan><tspan
             style="font-weight:normal"
             id="tspan2295">utty</tspan></tspan></text>
      <text
         xml:space="preserve"
         style="font-style:normal;font-weight:normal;font-size:10.58333302px;line-height:1.25;font-family:sans-serif;letter-spacing:0px;word-spacing:0px;fill:#000000;fill-opacity:1;stroke:none;stroke-width:0.26458332"
         x="14.400035"
         y="307.37277"
         id="text2055"
         inkscape:export-filename="D:\Documents\Workspace\cheeses-of-the-world\public\img\NBC.png"
         inkscape:export-xdpi="515.29999"
         inkscape:export-ydpi="515.29999"><tspan
           id="tspan2053"
           sodipodi:role="line"
           x="14.400035"
           y="307.37277"
           style="font-style:normal;font-variant:normal;font-weight:bold;font-stretch:normal;font-size:3.52777767px;font-family:'Charis SIL';-inkscape-font-specification:'Charis SIL Bold';stroke-width:0.26458332"><tspan
             style="fill:#003380"
             id="tspan2303">B</tspan><tspan
             style="font-weight:normal"
             id="tspan2297">lue</tspan></tspan></text>
      <text
         id="text2063"
         y="311.077"
         x="14.400035"
         style="font-style:normal;font-weight:normal;font-size:10.58333302px;line-height:1.25;font-family:sans-serif;letter-spacing:0px;word-spacing:0px;fill:#000000;fill-opacity:1;stroke:none;stroke-width:0.26458332"
         xml:space="preserve"
         inkscape:export-filename="D:\Documents\Workspace\cheeses-of-the-world\public\img\NBC.png"
         inkscape:export-xdpi="515.29999"
         inkscape:export-ydpi="515.29999"><tspan
           style="font-style:normal;font-variant:normal;font-weight:bold;font-stretch:normal;font-size:3.52777767px;font-family:'Charis SIL';-inkscape-font-specification:'Charis SIL Bold';stroke-width:0.26458332"
           y="311.077"
           x="14.400035"
           sodipodi:role="line"
           id="tspan2061"><tspan
             style="fill:#003380"
             id="tspan2305">C</tspan><tspan
             style="font-weight:normal"
             id="tspan2299">heese</tspan></tspan></text>
      <path
         inkscape:connector-curvature="0"
         style="fill:#003380;fill-opacity:1;stroke:none;stroke-width:0.0362999px;stroke-linecap:butt;stroke-linejoin:miter;stroke-opacity:1"
         d="m 8.5850792,301.24726 c -1.1867169,-7.3e-4 -4.6110581,0.18585 -7.3813586,2.21241 l 0.9211552,0.1737 c 0,0 0.5720256,-0.33355 1.0699412,-0.24576 0.7212082,0.12717 0.5729748,0.55487 0.5729748,0.55487 l 8.5286462,1.62314 -1.970985,-2.58642 c 0,0 -0.8676838,0.15195 -1.1687178,-0.45853 -0.218124,-0.44234 0.2684,-0.72286 0.2684,-0.72286 l -0.411473,-0.54002 c 0,0 -0.154723,-0.0103 -0.428588,-0.0105 z m -2.0646879,1.01934 a 0.36683118,0.95352617 89.987146 0 1 0.953591,0.36661 0.36683118,0.95352617 89.987146 0 1 -0.953429,0.36705 0.36683118,0.95352617 89.987146 0 1 -0.9535911,-0.36662 0.36683118,0.95352617 89.987146 0 1 0.9534291,-0.36704 z m 2.4204529,1.48471 a 0.33001591,0.91671089 89.987146 0 1 0.916789,0.32983 0.33001591,0.91671089 89.987146 0 1 -0.916643,0.33016 0.33001591,0.91671089 89.987146 0 1 -0.9167949,-0.32975 0.33001591,0.91671089 89.987146 0 1 0.9166489,-0.33024 z"
         id="path837"
         inkscape:export-filename="D:\Documents\Workspace\cheeses-of-the-world\public\img\NBC.png"
         inkscape:export-xdpi="515.29999"
         inkscape:export-ydpi="515.29999" />
      <path
         style="fill:none;stroke:#000000;stroke-width:0.0362999px;stroke-linecap:butt;stroke-linejoin:miter;stroke-opacity:1"
         d="M 0.49924066,303.53635 Z"
         id="path839"
         inkscape:connector-curvature="0"
         inkscape:export-filename="D:\Documents\Workspace\cheeses-of-the-world\public\img\NBC.png"
         inkscape:export-xdpi="515.29999"
         inkscape:export-ydpi="515.29999" />
      <path
         inkscape:connector-curvature="0"
         style="fill:#002255;fill-opacity:1;stroke:none;stroke-width:0.03635706;stroke-linecap:butt;stroke-linejoin:miter;stroke-miterlimit:4;stroke-dasharray:none;stroke-opacity:1"
         d="m 1.2037206,303.45967 0.1478035,5.90062 6.4970232,1.22791 c 0,0 0.231535,-0.54187 0.8538819,-0.42551 0.623116,0.11649 0.639588,0.70778 0.639588,0.70778 l 2.9740218,0.56212 -0.0196,-5.86697 -8.5286463,-1.62314 c 0,0 -0.2446053,0.67771 -0.943741,0.53152 -0.6806915,-0.14232 -0.699175,-0.84062 -0.699175,-0.84062 z m 5.6744827,2.52313 a 0.75025795,0.75025795 0 0 1 0.750411,0.75008 0.75025795,0.75025795 0 0 1 -0.750074,0.75041 0.75025795,0.75025795 0 0 1 -0.7504141,-0.75007 0.75025795,0.75025795 0 0 1 0.7500771,-0.75042 z m -3.5697089,0.40499 a 0.92694396,0.97231879 89.987146 0 1 0.972507,0.9267 0.92694396,0.97231879 89.987146 0 1 -0.972092,0.92722 0.92694396,0.97231879 89.987146 0 1 -0.9725123,-0.92678 0.92694396,0.97231879 89.987146 0 1 0.9720973,-0.92714 z m 6.5061928,2.21865 a 0.35651688,0.35651688 0 0 1 0.3566338,0.35639 0.35651688,0.35651688 0 0 1 -0.3564708,0.35663 0.35651688,0.35651688 0 0 1 -0.35663,-0.35647 0.35651688,0.35651688 0 0 1 0.356467,-0.35655 z m -3.627626,0.0931 a 0.52657394,0.55235025 89.987146 0 1 0.5524821,0.52651 0.52657394,0.55235025 89.987146 0 1 -0.5522491,0.52668 0.52657394,0.55235025 89.987146 0 1 -0.5524851,-0.52643 0.52657394,0.55235025 89.987146 0 1 0.5522521,-0.52676 z"
         id="path841"
         inkscape:export-filename="D:\Documents\Workspace\cheeses-of-the-world\public\img\NBC.png"
         inkscape:export-xdpi="515.29999"
         inkscape:export-ydpi="515.29999" />
    </g>
  </g>
</svg>
